<?xml version="1.0" encoding="utf-8"?>
<!-- Generator: Adobe Illustrator 25.4.3, SVG Export Plug-In . SVG Version: 6.00 Build 0)  -->
<svg version="1.1" id="Camada_1" xmlns="http://www.w3.org/2000/svg" xmlns:xlink="http://www.w3.org/1999/xlink" x="0px" y="0px"
	 viewBox="0 0 124 16.9" style="enable-background:new 0 0 124 16.9;" xml:space="preserve">
<style type="text/css">
	.st0{fill:#FFFFFF;}
	.st1{fill:#FF8000;}
	.st2{fill:#FFCE00;}
	.st3{fill:#FF0024;}
</style>
<path class="st0" d="M95.4,12.1c0-0.6,0.5-1.2,1.1-1.2c0,0,0.1,0,0.1,0c0.6,0,1.1,0.5,1.2,1.1c0,0,0,0.1,0,0.1
	c0,0.6-0.5,1.2-1.2,1.2C95.9,13.3,95.4,12.8,95.4,12.1C95.4,12.1,95.4,12.1,95.4,12.1z"/>
<path class="st1" d="M0,7.5C0,11.6,3.3,15,7.5,15c4.1,0,7.5-3.3,7.5-7.5C15,3.4,11.6,0,7.5,0c0,0,0,0,0,0C3.3,0,0,3.3,0,7.5"/>
<path class="st2" d="M7.5,0.4C4,0.4,1.2,3.2,1.2,6.6c0,0,0,0,0,0c0,0.3,0,0.7,0.1,1C2.3,5.4,4.5,3.9,6.9,4c2,0,3.9,1,5.1,2.7l0,0
	c0.6,0,1.2,0.2,1.7,0.6c0-0.2,0-0.4,0-0.6C13.7,3.2,10.9,0.5,7.5,0.4"/>
<path class="st3" d="M13.7,7.2c-0.5-0.4-1.1-0.6-1.7-0.6l0,0c-2,0.2-3.8,1.6-4.3,3.6c-0.3,0.9-0.2,1.9,0.3,2.6H7.5
	c-3.1,0-5.7-2.2-6.2-5.2C1.1,8.2,1,8.8,1,9.4c0,1.5,0.7,2.9,1.8,3.9c0.7,0.6,1.5,1,2.3,1.3c2.8,0.9,6,0.1,7.9-2.2
	c0.5-0.5,0.9-1.1,1.2-1.8c0-0.1,0.1-0.2,0.1-0.4C14.8,9.2,14.5,8,13.7,7.2"/>
<path class="st0" d="M54.3,6.9V13c0,0.1-0.1,0.1-0.1,0.1h-1.4c-0.1,0-0.1-0.1-0.1-0.1V7.4c0.2-1.4-0.8-2.6-2.2-2.8
	c-0.2,0-0.3,0-0.5,0c-1.5-0.1-2.8,1.1-2.8,2.6c0,0.1,0,0.1,0,0.2V13c0,0.1-0.1,0.1-0.1,0.1h-1.5c-0.1,0-0.1-0.1-0.1-0.1V7.4
	c0.2-1.4-0.8-2.6-2.2-2.8c-0.2,0-0.3,0-0.5,0c-1.5,0-2.8,1.2-2.8,2.7c0,0.1,0,0.1,0,0.2V13c0,0.1,0,0.1-0.1,0.1h-1.5
	c-0.1,0-0.1-0.1-0.1-0.1V3.3c0-0.1,0-0.1,0.1-0.1c0,0,0,0,0,0h1.4c0.1,0,0.1,0,0.1,0.1c0,0,0,0,0,0v0.8c0,0.1,0,0.1,0.1,0.1
	c0,0,0.1,0,0.1,0c1.7-1.6,4.4-1.6,6,0.1c0.1,0.2,0.3,0.3,0.4,0.5c0,0.1,0.1,0.1,0.2,0c0,0,0,0,0,0c0.8-1.2,2.1-1.9,3.5-1.8
	c2.1-0.1,3.8,1.4,4,3.5C54.3,6.6,54.3,6.7,54.3,6.9"/>
<path class="st0" d="M66,8.1c0.1,2.7-2,4.9-4.6,5c-0.1,0-0.1,0-0.2,0c-1.2,0-2.4-0.4-3.2-1.3c0,0-0.1,0-0.2,0c0,0,0,0.1,0,0.1v4.9
	c0,0.1-0.1,0.1-0.1,0.1h-1.5c-0.1,0-0.1,0-0.1-0.1c0,0,0,0,0,0V3.3c0-0.1,0-0.1,0.1-0.1l0,0h1.4c0.1,0,0.1,0,0.1,0.1c0,0,0,0,0,0
	v0.9c0,0.1,0,0.1,0.1,0.1c0,0,0.1,0,0.1,0c0.8-0.9,2-1.3,3.2-1.3C63.8,3,66,5.2,66,7.8C66,7.9,66,7.9,66,8.1 M57.6,8
	c0,1.8,1.5,3.3,3.3,3.3s3.3-1.5,3.3-3.3c0-1.8-1.5-3.3-3.3-3.3S57.6,6.2,57.6,8C57.6,8,57.6,8,57.6,8"/>
<path class="st0" d="M84.7,5.3c0,0-0.1,0-0.2,0c-0.9-0.5-1.9-0.8-3-0.8c-1.3,0-2.2,0.6-2.2,1.4s0.7,1.1,1.9,1.3l1.1,0.1
	c2,0.3,3.3,1.1,3.3,2.7c0,1.8-1.7,3-4.3,3c-1.4,0-2.8-0.4-4-1.2c0,0,0-0.1,0-0.1l0.7-1c0,0,0.1,0,0.2,0c0,0,0,0,0,0
	c0.9,0.7,2.1,1,3.2,1c1.6,0,2.6-0.5,2.6-1.5c0-0.7-0.6-1.1-1.9-1.3l-1.1-0.2c-2.2-0.3-3.2-1.2-3.2-2.7c0-1.8,1.5-3,3.9-3
	c1.3,0,2.6,0.3,3.8,1c0,0,0,0.1,0,0.2L84.7,5.3z"/>
<path class="st0" d="M93.2,5.3c0,0-0.1,0-0.2,0c-0.9-0.5-1.9-0.8-3-0.8c-1.3,0-2.2,0.6-2.2,1.4s0.7,1.1,1.9,1.3l1.1,0.1
	c2,0.3,3.3,1.1,3.3,2.7c0,1.8-1.7,3-4.3,3c-1.4,0-2.8-0.4-4-1.2c0,0,0-0.1,0-0.1c0,0,0,0,0,0l0.7-1c0,0,0.1-0.1,0.1,0c0,0,0,0,0,0
	c0.9,0.7,2.1,1,3.2,1c1.6,0,2.6-0.5,2.6-1.5c0-0.7-0.6-1.1-1.9-1.3l-1.1-0.2c-2.2-0.3-3.2-1.2-3.2-2.7c0-1.8,1.5-3,3.9-3
	c1.3,0,2.6,0.3,3.8,1c0,0,0,0.1,0,0.2L93.2,5.3z"/>
<path class="st0" d="M25,10.5c0,0-0.1-0.1-0.1,0c0,0,0,0,0,0c-1.3,1.4-3.4,1.5-4.8,0.2s-1.5-3.4-0.2-4.8c0.1-0.1,0.2-0.2,0.3-0.2
	c1.3-1.4,3.4-1.4,4.7-0.2c0,0,0,0,0.1,0.1c0,0,0.1,0.1,0.1,0c0,0,0,0,0,0L26,4.6c0,0,0-0.1,0-0.2c0,0,0,0,0,0c-1.9-2-5-2-7-0.1
	c0,0-0.1,0.1-0.1,0.1c-2,1.9-2,5-0.2,7c0.1,0.1,0.1,0.1,0.2,0.2c1.9,2,5,2.1,7,0.2c0,0,0.1-0.1,0.1-0.1c0,0,0-0.1,0-0.2c0,0,0,0,0,0
	L25,10.5z"/>
<path class="st0" d="M28.5,8.1c0.1,0,0.1,0,0.1-0.1c0,0,0,0,0,0c-0.1-1.9,1.4-3.5,3.3-3.5s3.5,1.4,3.5,3.3c0,0.1,0,0.2,0,0.4
	c0.1,1.8-1.3,3.4-3.2,3.5c0,0-0.1,0-0.1,0c-0.1,0-0.1,0.1-0.1,0.1V13c0,0.1,0.1,0.1,0.1,0.1c2.7,0,5-2.2,5-4.9c0,0,0-0.1,0-0.1
	c0.1-2.7-2-5-4.8-5.1c-0.1,0-0.3,0-0.4,0c-2.7-0.1-5,2.1-5.1,4.8c0,0,0,0.1,0,0.1C26.9,8,26.9,8,27,8c0,0,0,0,0,0L28.5,8.1z"/>
<path class="st0" d="M76.2,3.2h-1.4c-0.1,0-0.1,0-0.1,0.1c0,0,0,0,0,0v0.9C73.8,3.4,72.6,3,71.3,3c-2.7,0-5,2.1-5,4.9
	c0,0.1,0,0.1,0,0.2c-0.1,2.8,2.1,5,4.9,5.1c0,0,0,0,0,0c0.1,0,0.1-0.1,0.1-0.1v-1.5c0-0.1,0-0.1-0.1-0.1l0,0c-1.8,0-3.3-1.5-3.4-3.3
	c0,0,0-0.1,0-0.1c0-1.8,1.4-3.4,3.3-3.4c0.1,0,0.1,0,0.2,0c1.7,0,3.4,1.2,3.4,2.6V13c0,0.1,0.1,0.1,0.1,0.1l0,0h1.4
	c0.1,0,0.1-0.1,0.1-0.1c0,0,0,0,0,0V3.3C76.4,3.3,76.3,3.2,76.2,3.2C76.3,3.2,76.3,3.2,76.2,3.2"/>
<path class="st2" d="M33.1,9.1l0.5-1.8c0.1-0.3-0.1-0.6-0.4-0.6c-0.1,0-0.2,0-0.2,0l-1.8,0.5c-0.3,0.1-0.4,0.4-0.4,0.6
	c0,0.1,0.1,0.2,0.1,0.2l1.3,1.3c0.2,0.2,0.5,0.2,0.7,0C33.1,9.3,33.1,9.2,33.1,9.1"/>
<path class="st0" d="M123.7,9.6c-1.2,0-1.7-0.6-1.7-1.8V0.6h-3.6V6c-1.2-2.6-4.2-3.7-6.8-2.5c-1.1,0.5-2,1.4-2.5,2.5V3.1h-3.6v5
	c0,0.9-0.5,1.5-1.3,1.5s-1.3-0.6-1.3-1.5v-5h-3.6v5.1c0,3.1,1.9,5.1,4.9,5.1c2.2,0.1,4.1-1.3,4.6-3.4c0.9,2.7,3.9,4.1,6.6,3.2
	c1.4-0.5,2.6-1.6,3.1-3.1c0.5,2.3,2.3,3.3,4.6,3.3h0.9V9.6H123.7z M113.7,9.7c-0.9,0-1.6-0.7-1.6-1.5c0-0.9,0.7-1.6,1.5-1.6
	s1.6,0.7,1.6,1.5c0,0,0,0,0,0C115.2,9,114.5,9.7,113.7,9.7"/>
</svg>
